<svg width="21" height="24" viewBox="0 0 21 24" fill="none" xmlns="http://www.w3.org/2000/svg">
<path d="M19.1567 0.429016H4.42342C3.38908 0.429016 2.3971 0.839906 1.66572 1.57129C0.934327 2.30268 0.523438 3.29466 0.523438 4.329V22.5289C0.523438 22.8737 0.660401 23.2044 0.904197 23.4482C1.14799 23.692 1.47865 23.8289 1.82343 23.8289H17.4234C17.7681 23.8289 18.0988 23.692 18.3426 23.4482C18.5864 23.2044 18.7234 22.8737 18.7234 22.5289C18.7234 22.1841 18.5864 21.8535 18.3426 21.6097C18.0988 21.3659 17.7681 21.2289 17.4234 21.2289H3.12343V20.7956C3.12343 20.4508 3.26039 20.1202 3.50419 19.8764C3.74798 19.6326 4.07864 19.4956 4.42342 19.4956H19.1567C19.5015 19.4956 19.8321 19.3586 20.0759 19.1148C20.3197 18.871 20.4567 18.5404 20.4567 18.1956V1.72901C20.4567 1.38423 20.3197 1.05357 20.0759 0.809776C19.8321 0.565979 19.5015 0.429016 19.1567 0.429016ZM17.8567 16.8956H4.42342C3.98049 16.8948 3.54072 16.9703 3.12343 17.1188V4.329C3.12343 3.98422 3.26039 3.65356 3.50419 3.40976C3.74798 3.16597 4.07864 3.02901 4.42342 3.02901H17.8567V16.8956Z" fill="black"/>
</svg>
