<svg width="23" height="24" viewBox="0 0 23 24" fill="none" xmlns="http://www.w3.org/2000/svg">
<path d="M22.3659 20.7768L19.1569 10.6907L22.1118 7.44077C22.3572 7.16412 22.4837 6.80189 22.4638 6.43261C22.4439 6.06333 22.2793 5.71676 22.0056 5.46804C21.732 5.21932 21.3713 5.0885 21.0018 5.10394C20.6323 5.11937 20.2838 5.27983 20.0318 5.55051L18.172 7.59536L16.4035 2.03819C16.254 1.56369 15.9568 1.14939 15.5552 0.855696C15.1537 0.562007 14.6688 0.404302 14.1713 0.405586H9.23248C8.73498 0.404302 8.25009 0.562007 7.84854 0.855696C7.44698 1.14939 7.14976 1.56369 7.00024 2.03819L1.03785 20.7768C0.926222 21.1279 0.898982 21.5003 0.958336 21.8639C1.01769 22.2275 1.16197 22.572 1.37945 22.8693C1.59693 23.1667 1.88147 23.4085 2.20998 23.5752C2.53849 23.742 2.90169 23.8289 3.27008 23.8289H20.1348C20.5032 23.8289 20.8664 23.742 21.1949 23.5752C21.5235 23.4085 21.808 23.1667 22.0255 22.8693C22.243 22.572 22.3872 22.2275 22.4466 21.8639C22.5059 21.5003 22.4787 21.1279 22.3671 20.7768H22.3659ZM17.7047 15.3965H14.8787L16.9727 13.094L17.7047 15.3965ZM9.57446 3.21638H13.8293L15.9866 9.99859L11.0806 15.3965H5.69908L9.57446 3.21638ZM3.91071 21.0181L4.80431 18.2073H18.5994L19.493 21.0181H3.91071Z" fill="black"/>
</svg>
